<?xml version="1.0"?><svg width="533.3333333333333" height="533.3333333333333" xmlns="http://www.w3.org/2000/svg" xmlns:xlink="http://www.w3.org/1999/xlink">
 <title>car outline</title>
 <defs>
  <linearGradient id="linearGradient619">
   <stop stop-color="#000000" offset="0" id="stop620"/>
   <stop stop-color="#ffffff" offset="1" id="stop621"/>
  </linearGradient>
  <linearGradient xlink:href="#linearGradient619" id="linearGradient622"/>
 </defs>
 <g>
  <title>Layer 1</title>
  <path fill="#ffffff" fill-rule="evenodd" stroke="black" stroke-width="3.75" stroke-linejoin="bevel" id="path606" d="m423.550995,283.674988c3.712006,-0.411987 69.899017,7.154999 74.64502,-9.459991c11.866974,-33.22699 -8.703003,-60.917999 -37.184021,-71.203003c-28.480988,-5.537994 -24.523987,-2.372986 -61.708008,-7.91098c-34.018982,-44.303009 -18.987,-113.924011 -100.474976,-108.386017c-91.772003,-2.373001 -106.013016,75.949005 -136.075012,98.893005c-21.361908,25.31601 -102.0578,-11.075989 -104.431198,31.644989c-3.1646,15.032013 -5.538002,51.424011 18.987305,67.247009c11.867096,0 31.645599,0.790985 39.556999,0.790985c0.7911,-56.169983 67.246895,-47.467987 68.038902,-1.58197c18.194992,1.58197 156.643982,-1.582001 166.138,-2.373016c-0.825012,-51.490997 75.738983,-53.251984 72.506989,2.338989z"/>
  <path fill="#ffffff" fill-rule="evenodd" stroke="#000000" stroke-width="3.75" stroke-linejoin="bevel" id="path607" d="m170.665024,193.519012c0,0 40.860718,-70.411011 72.731613,-88.608017c20.42984,-8.701996 36.774323,-13.44899 50.667633,-12.65799c0.817047,-5.53801 4.902374,89.399002 -1.635193,102.056992c-13.075195,3.165009 -116.043518,0.791016 -121.764053,-0.790985z"/>
  <path fill="#ffffff" fill-rule="evenodd" stroke="black" stroke-width="3.75" stroke-linejoin="bevel" id="path608" d="m300.037964,92.253006c0,0 -4.746948,99.684006 3.165039,102.848984c13.448975,0.790009 83.06897,2.372009 86.234009,-4.747986c-14.23999,-7.119995 -12.65802,-107.594009 -89.399048,-98.100998z"/>
  <path fill="#ffffff" fill-rule="evenodd" stroke="black" stroke-width="3.75" stroke-linejoin="bevel" id="path609" d="m66.2342,203.803986c-5.538002,7.120026 -6.329201,15.032013 -4.746899,24.526001c13.449398,6.328003 26.8988,-33.227997 4.746899,-24.526001z"/>
  <path fill="#ffffff" fill-rule="evenodd" stroke="black" stroke-width="3.75" stroke-linejoin="bevel" id="path610" d="m493.449982,233.867096c1.582001,-9.493988 -14.23999,-13.449005 -13.449982,-0.001007c-1.581024,13.450012 14.23999,13.450012 13.449982,0.001007z"/>
  <path fill="#bfbfbf" fill-rule="evenodd" stroke="black" stroke-width="3.75" stroke-linejoin="bevel" id="path611" d="m52.784798,260.765015c0,0 3.164604,-11.075012 20.569603,-1.582001c16.613998,13.449982 -22.151878,22.944 -20.569603,1.582001z"/>
  <path fill="#bfbfbf" fill-rule="evenodd" stroke="black" stroke-width="3.75" stroke-linejoin="bevel" id="path613" d="m507.043213,257.600403c0,0 -3.164612,-11.075012 -20.569611,-1.582001c-16.613983,13.449982 22.151886,22.944 20.569611,1.582001z"/>
  <path fill="none" fill-rule="evenodd" stroke="black" stroke-width="3.75" stroke-linejoin="bevel" id="path615" d="m171.873001,195.519012c22.151001,47.467987 18.197006,83.862 19.778992,83.862c3.164001,0 91.772018,2.371979 99.683029,-1.583008c3.164978,-18.987 -1.582031,-82.278992 -1.582031,-82.278992c-8.703003,3.164978 -100.474991,2.372986 -117.87999,0z"/>
  <path fill="none" fill-rule="evenodd" stroke="black" stroke-width="3.75" stroke-linejoin="bevel" id="path616" d="m300.411011,193.309998c0.790985,6.32901 -2.373016,79.904999 -2.373016,82.278992c13.449005,-0.000977 37.183014,1.582001 47.468018,-2.373993c7.911987,-30.855011 29.138,-34.018982 38.765991,-38.765991c3.165009,-5.537994 3.165009,-45.095001 3.165009,-45.095001c-3.165009,6.32901 -58.545013,5.539001 -87.026001,3.955994z"/>
  <path fill="#bfbfbf" fill-rule="evenodd" stroke="black" stroke-width="3.75" stroke-linejoin="bevel" id="path617" d="m280.632996,206.177002c-0.791016,-6.32901 -20.570007,-6.32901 -22.151978,1.583008c0.790985,8.701996 21.359985,7.91098 22.151978,-1.583008z"/>
  <path fill="#bfbfbf" fill-rule="evenodd" stroke="black" stroke-width="3.75" stroke-linejoin="bevel" id="path618" d="m383.480988,201.430099c-0.790985,-6.32901 -20.569977,-6.32901 -22.151978,1.583008c0.790985,8.701996 21.359985,7.91098 22.151978,-1.583008z"/>
  <path fill="#ffffff" fill-rule="evenodd" stroke-width="1pt" fill-opacity="0.711111" id="path623" d="m180.158005,186.398987c15.031998,-18.987 30.854996,-76.740982 100.474991,-90.189987c-12.65799,36.391998 -70.412003,93.353989 -100.474991,90.189987z"/>
  <path fill="#ffffff" fill-rule="evenodd" stroke-width="1pt" fill-opacity="0.713726" id="path624" d="m303.575989,97.791c-3.164978,5.537994 -3.955994,51.423996 2.374023,80.695999c18.987,-61.707993 42.720978,-89.399002 -2.374023,-80.695999z"/>
  <g transform="matrix(0.999131, -0.0416883, 0.0416883, 0.999131, -2.88845, -52.6381)" id="g631">
   <path fill="#bfbfbf" fill-rule="evenodd" stroke="black" stroke-width="3.75" stroke-linejoin="bevel" id="path612" d="m138.1539,309.378235c-31.653702,-2.499023 -41.788895,56.373993 1.24501,60.681976c47.797989,-0.790985 32.874985,-61.472992 -1.24501,-60.681976z"/>
   <path fill="#bfbfbf" fill-rule="evenodd" stroke="black" stroke-width="3.75" id="path625" d="m138.358627,321.511353c17.038986,-2.953979 32.716003,32.489014 2.271988,37.26001c-26.127701,-0.455017 -22.037994,-34.080017 -2.271988,-37.26001z"/>
   <path fill="#bfbfbf" fill-rule="evenodd" stroke="black" stroke-width="3.75" id="path626" d="m138.812622,336.960358c5.453003,-1.817993 7.270996,7.497986 2.5,6.81601c-6.362,2.5 -8.406006,-5.451996 -2.5,-6.81601z"/>
   <path fill="#bfbfbf" fill-rule="evenodd" stroke="black" stroke-width="1.25" id="path627" d="m139.040619,325.373352c-2.725998,0 -1.817993,8.179016 0.908005,7.951996c2.72699,-0.22699 1.591003,-8.178986 -0.908005,-7.951996z"/>
   <path fill="#bfbfbf" fill-rule="evenodd" stroke="black" stroke-width="1.25" id="path628" d="m140.630997,347.411346c-2.726013,0 -1.818008,8.179016 0.90799,7.951996c2.727005,-0.22699 1.591003,-8.178986 -0.90799,-7.951996z"/>
   <path fill="#bfbfbf" fill-rule="evenodd" stroke="black" stroke-width="1.25" id="path629" d="m154.569626,339.380371c0,-2.726013 -8.179016,-1.817993 -7.951996,0.90799c0.22699,2.72699 8.178986,1.591003 7.951996,-0.90799z"/>
   <path fill="#bfbfbf" fill-rule="evenodd" stroke="black" stroke-width="1.25" id="path630" d="m133.440628,341.879364c0,-2.726013 -8.179016,-1.818024 -7.951996,0.90799c0.22699,2.72699 8.178986,1.591003 7.951996,-0.90799z"/>
  </g>
  <g transform="matrix(0.695839, -0.718198, 0.718198, 0.695839, 15.1018, 128.738)" id="g639">
   <path fill="#cccccc" fill-rule="evenodd" stroke="black" stroke-width="3.75" stroke-linejoin="bevel" id="path640" d="m151.379974,339.682129c-31.653702,-2.499023 -41.788902,56.373993 1.244995,60.681976c47.798004,-0.790985 32.875,-61.472992 -1.244995,-60.681976z"/>
   <path fill="#cccccc" fill-rule="evenodd" stroke="black" stroke-width="3.75" id="path641" d="m151.584686,351.815247c17.039001,-2.953979 32.716003,32.489014 2.272003,37.26001c-26.127701,-0.455017 -22.037994,-34.080017 -2.272003,-37.26001z"/>
   <path fill="#cccccc" fill-rule="evenodd" stroke="black" stroke-width="3.75" id="path642" d="m152.038696,367.264252c5.453003,-1.817993 7.270996,7.497986 2.5,6.81601c-6.362,2.5 -8.406006,-5.451996 -2.5,-6.81601z"/>
   <path fill="#cccccc" fill-rule="evenodd" stroke="black" stroke-width="1.25" id="path643" d="m152.266693,355.677246c-2.726013,0 -1.817993,8.179016 0.90799,7.951996c2.727005,-0.22699 1.591003,-8.178986 -0.90799,-7.951996z"/>
   <path fill="#cccccc" fill-rule="evenodd" stroke="black" stroke-width="1.25" id="path644" d="m153.857056,377.71524c-2.725998,0 -1.817993,8.179016 0.908005,7.951996c2.727005,-0.22699 1.591003,-8.178986 -0.908005,-7.951996z"/>
   <path fill="#cccccc" fill-rule="evenodd" stroke="black" stroke-width="1.25" id="path645" d="m167.795685,369.684265c0,-2.726013 -8.179016,-1.817993 -7.951996,0.90799c0.22699,2.72699 8.178986,1.591003 7.951996,-0.90799z"/>
   <path fill="#cccccc" fill-rule="evenodd" stroke="black" stroke-width="1.25" id="path646" d="m146.666687,372.183258c0,-2.726013 -8.179016,-1.818024 -7.951996,0.90799c0.22699,2.72699 8.178986,1.591003 7.951996,-0.90799z"/>
  </g>
 </g>
</svg>